<svg width="16" height="18" viewBox="0 0 16 18" fill="none" xmlns="http://www.w3.org/2000/svg">
<path d="M13.8375 4.26655L12.1734 2.54724C12.0561 2.42531 11.9165 2.32857 11.7629 2.26257C11.6092 2.19657 11.4445 2.16262 11.2781 2.16266C10.9391 2.16266 10.6203 2.30001 10.3813 2.54724L8.59063 4.39905C8.47273 4.52045 8.37918 4.66474 8.31536 4.82364C8.25155 4.98253 8.21871 5.1529 8.21875 5.32496C8.21875 5.67561 8.35157 6.00525 8.59063 6.25248L9.9 7.6066C9.59351 8.30525 9.16738 8.94082 8.64219 9.48265C8.11832 10.0271 7.5038 10.4694 6.82813 10.7883L5.51875 9.43417C5.40137 9.31224 5.26185 9.2155 5.1082 9.1495C4.95455 9.0835 4.78981 9.04955 4.62344 9.04959C4.28438 9.04959 3.96563 9.18694 3.72656 9.43417L1.93438 11.2844C1.81633 11.406 1.7227 11.5505 1.65888 11.7097C1.59506 11.8689 1.56231 12.0396 1.5625 12.2119C1.5625 12.5625 1.69531 12.8922 1.93438 13.1394L3.59531 14.8571C3.97656 15.253 4.50313 15.4776 5.04375 15.4776C5.15781 15.4776 5.26719 15.4679 5.375 15.4485C7.48125 15.0898 9.57032 13.9312 11.2563 12.1893C12.9406 10.449 14.0594 8.29012 14.4109 6.10543C14.5172 5.43807 14.3031 4.75132 13.8375 4.26655Z" fill="#545454"/>
</svg>
