<svg width="198" height="186" viewBox="0 0 198 186" fill="none" xmlns="http://www.w3.org/2000/svg">
<path fill-rule="evenodd" clip-rule="evenodd" d="M98.4581 13.543C112.841 12.687 126.877 17.3435 139.626 24.0583C152.698 30.9439 164.698 40.0706 172.565 52.5769C180.585 65.3255 182.146 80.4835 184.48 95.3627C187.181 112.578 195.878 131.487 187.328 146.672C178.786 161.842 158.714 165.892 142.008 170.793C127.823 174.954 113.138 174.488 98.4581 172.742C85.0898 171.153 73.2463 165.445 60.5037 161.102C44.6574 155.7 23.5578 157.89 14.1848 144.018C4.94028 130.336 14.9924 111.839 16.0849 95.3627C17.1006 80.0437 11.9414 63.1083 20.3992 50.2954C28.8215 37.5363 46.194 35.3083 60.0257 28.7959C72.7117 22.823 84.4612 14.3761 98.4581 13.543Z" fill="#D1F1DF"/>
<path d="M133.833 93.6265V68.7452H100.658H67.4827V93.6265V118.508H100.658" stroke="#19B961" stroke-width="5.64682" stroke-linecap="round" stroke-linejoin="round"/>
<path d="M112.269 113.531L120.563 120.166L133.833 103.579" stroke="#19B961" stroke-width="5.64682" stroke-linecap="round" stroke-linejoin="round"/>
<path d="M67.4827 68.7452L100.658 93.6265L133.833 68.7452" stroke="#19B961" stroke-width="5.64682" stroke-linecap="round" stroke-linejoin="round"/>
<path d="M172.5 0C171.312 7.45737 169.135 11.4884 163 12.8992C169.333 14.1085 172.368 22.8424 172.5 26C172.5 21.8078 175.271 14.3101 182 12.8992C175.192 12.093 172.5 4.16537 172.5 0Z" fill="#FF9E68"/>
<path d="M190 161C189 168.171 187.167 172.047 182 173.403C187.333 174.566 189.889 182.964 190 186C190 181.969 192.333 174.76 198 173.403C192.267 172.628 190 165.005 190 161Z" fill="#FFDB68"/>
<path d="M12 8C11 14.3101 9.16667 17.7209 4 18.9147C9.33333 19.938 11.8889 27.3282 12 30C12 26.4527 14.3333 20.1085 20 18.9147C14.2667 18.2326 12 11.5245 12 8Z" fill="#FFDB68"/>
<path d="M10 149C8.75 157.031 6.45833 161.372 0 162.891C6.66667 164.194 9.86111 173.599 10 177C10 172.485 12.9167 164.411 20 162.891C12.8333 162.023 10 153.486 10 149Z" fill="#FF9E68"/>
</svg>
