<svg width="12" height="13" viewBox="0 0 12 13" fill="none" xmlns="http://www.w3.org/2000/svg">
<path d="M6 1.25C7.39239 1.25 8.72774 1.80312 9.71231 2.78769C10.6969 3.77226 11.25 5.10761 11.25 6.5C11.25 7.89239 10.6969 9.22774 9.71231 10.2123C8.72774 11.1969 7.39239 11.75 6 11.75C4.60761 11.75 3.27226 11.1969 2.28769 10.2123C1.30312 9.22774 0.75 7.89239 0.75 6.5C0.75 5.10761 1.30312 3.77226 2.28769 2.78769C3.27226 1.80312 4.60761 1.25 6 1.25ZM6 11C7.19347 11 8.33807 10.5259 9.18198 9.68198C10.0259 8.83807 10.5 7.69347 10.5 6.5C10.5 5.30653 10.0259 4.16193 9.18198 3.31802C8.33807 2.47411 7.19347 2 6 2C4.80653 2 3.66193 2.47411 2.81802 3.31802C1.97411 4.16193 1.5 5.30653 1.5 6.5C1.5 7.69347 1.97411 8.83807 2.81802 9.68198C3.66193 10.5259 4.80653 11 6 11ZM6.5625 8.9375C6.5625 9.08668 6.50324 9.22976 6.39775 9.33525C6.29226 9.44074 6.14918 9.5 6 9.5C5.85082 9.5 5.70774 9.44074 5.60225 9.33525C5.49676 9.22976 5.4375 9.08668 5.4375 8.9375C5.4375 8.78832 5.49676 8.64524 5.60225 8.53975C5.70774 8.43426 5.85082 8.375 6 8.375C6.14918 8.375 6.29226 8.43426 6.39775 8.53975C6.50324 8.64524 6.5625 8.78832 6.5625 8.9375ZM6 3.5C6.09946 3.5 6.19484 3.53951 6.26517 3.60984C6.33549 3.68016 6.375 3.77554 6.375 3.875V7.25C6.375 7.34946 6.33549 7.44484 6.26517 7.51517C6.19484 7.58549 6.09946 7.625 6 7.625C5.90054 7.625 5.80516 7.58549 5.73484 7.51517C5.66451 7.44484 5.625 7.34946 5.625 7.25V3.875C5.625 3.77554 5.66451 3.68016 5.73484 3.60984C5.80516 3.53951 5.90054 3.5 6 3.5Z" fill="#FF5353"/>
</svg>
