<svg width="12" height="15" viewBox="0 0 12 15" fill="none" xmlns="http://www.w3.org/2000/svg">
<g clip-path="url(#clip0_573_794)">
<path d="M5.77879 7.5C7.6018 7.5 9.07929 5.82129 9.07929 3.75C9.07929 1.67871 7.6018 0 5.77879 0C3.95579 0 2.4783 1.67871 2.4783 3.75C2.4783 5.82129 3.95579 7.5 5.77879 7.5ZM8.08914 8.4375H7.65853C7.0861 8.73633 6.4492 8.90625 5.77879 8.90625C5.10838 8.90625 4.47407 8.73633 3.89906 8.4375H3.46845C1.55519 8.4375 0.00292969 10.2012 0.00292969 12.375V13.5938C0.00292969 14.3701 0.557309 15 1.24061 15H10.317C11.0003 15 11.5547 14.3701 11.5547 13.5938V12.375C11.5547 10.2012 10.0024 8.4375 8.08914 8.4375Z" fill="#545454"/>
</g>
<defs>
<clipPath id="clip0_573_794">
<rect width="11.5517" height="15" fill="white" transform="translate(0.00292969)"/>
</clipPath>
</defs>
</svg>
