<svg width="12" height="15" viewBox="0 0 12 15" fill="none" xmlns="http://www.w3.org/2000/svg">
<g clip-path="url(#clip0_573_804)">
<path d="M2.06574 5.625V4.21875C2.06574 1.88877 3.72888 0 5.77879 0C7.82871 0 9.49185 1.88877 9.49185 4.21875V5.625H9.90441C10.8146 5.625 11.5547 6.46582 11.5547 7.5V13.125C11.5547 14.1592 10.8146 15 9.90441 15H1.65318C0.741673 15 0.00292969 14.1592 0.00292969 13.125V7.5C0.00292969 6.46582 0.741673 5.625 1.65318 5.625H2.06574ZM3.71598 5.625H7.8416V4.21875C7.8416 2.92441 6.91849 1.875 5.77879 1.875C4.63909 1.875 3.71598 2.92441 3.71598 4.21875V5.625Z" fill="#545454"/>
</g>
<defs>
<clipPath id="clip0_573_804">
<rect width="11.5517" height="15" fill="white" transform="translate(0.00292969)"/>
</clipPath>
</defs>
</svg>
