<svg width="25" height="26" viewBox="0 0 25 26" fill="none" xmlns="http://www.w3.org/2000/svg">
<path d="M22.7142 10.9599H21.8752V10.9166H12.5002V15.0833H18.3871C17.5283 17.5088 15.2205 19.25 12.5002 19.25C9.0486 19.25 6.25016 16.4515 6.25016 13C6.25016 9.54842 9.0486 6.74998 12.5002 6.74998C14.0934 6.74998 15.5429 7.35102 16.6465 8.33279L19.5929 5.38644C17.7325 3.65258 15.2439 2.58331 12.5002 2.58331C6.74756 2.58331 2.0835 7.24738 2.0835 13C2.0835 18.7526 6.74756 23.4166 12.5002 23.4166C18.2528 23.4166 22.9168 18.7526 22.9168 13C22.9168 12.3015 22.845 11.6198 22.7142 10.9599Z" fill="#FFC107"/>
<path d="M3.28418 8.15154L6.70658 10.6614C7.63262 8.36873 9.87533 6.74998 12.4998 6.74998C14.093 6.74998 15.5425 7.35102 16.6462 8.33279L19.5925 5.38644C17.7321 3.65258 15.2436 2.58331 12.4998 2.58331C8.49876 2.58331 5.02897 4.84217 3.28418 8.15154Z" fill="#FF3D00"/>
<path d="M12.5 23.4167C15.1906 23.4167 17.6354 22.387 19.4839 20.7125L16.2599 17.9844C15.1789 18.8064 13.858 19.2511 12.5 19.25C9.79062 19.25 7.4901 17.5224 6.62344 15.1115L3.22656 17.7286C4.95052 21.1021 8.45156 23.4167 12.5 23.4167Z" fill="#4CAF50"/>
<path d="M22.7141 10.9599H21.875V10.9167H12.5V15.0834H18.387C17.9762 16.2377 17.2361 17.2465 16.2583 17.9849L16.2599 17.9839L19.4839 20.712C19.2557 20.9193 22.9167 18.2084 22.9167 13C22.9167 12.3016 22.8448 11.6198 22.7141 10.9599Z" fill="#1976D2"/>
</svg>
