<svg width="60" height="17" viewBox="0 0 60 17" fill="none" xmlns="http://www.w3.org/2000/svg">
<rect width="60" height="16.6667" rx="8.33333" fill="#79C143"/>
<path d="M10.5491 12H9.6258L12.2963 4.72727H13.2053L15.8758 12H14.9525L12.7792 5.87784H12.7224L10.5491 12ZM10.89 9.15909H14.6116V9.94034H10.89V9.15909ZM18.9546 12.1136C18.5001 12.1136 18.0988 11.9988 17.7508 11.7692C17.4028 11.5372 17.1305 11.2105 16.934 10.7891C16.7375 10.3653 16.6393 9.86458 16.6393 9.28693C16.6393 8.71402 16.7375 8.21686 16.934 7.79545C17.1305 7.37405 17.404 7.04853 17.7544 6.81889C18.1047 6.58925 18.5096 6.47443 18.9688 6.47443C19.324 6.47443 19.6045 6.53362 19.8105 6.65199C20.0188 6.76799 20.1774 6.90057 20.2863 7.04972C20.3976 7.1965 20.484 7.31723 20.5455 7.41193H20.6166V4.72727H21.4546V12H20.645V11.1619H20.5455C20.484 11.2614 20.3964 11.3868 20.2828 11.5384C20.1691 11.6875 20.007 11.8213 19.7963 11.9396C19.5856 12.0556 19.305 12.1136 18.9546 12.1136ZM19.0683 11.3608C19.4044 11.3608 19.6885 11.2732 19.9205 11.098C20.1526 10.9205 20.3289 10.6754 20.4497 10.3629C20.5704 10.0481 20.6308 9.68466 20.6308 9.27273C20.6308 8.86553 20.5716 8.50923 20.4532 8.20384C20.3348 7.89607 20.1597 7.65696 19.9276 7.48651C19.6956 7.31368 19.4092 7.22727 19.0683 7.22727C18.7132 7.22727 18.4172 7.31842 18.1805 7.50071C17.9461 7.68063 17.7697 7.92566 17.6514 8.2358C17.5354 8.54356 17.4774 8.8892 17.4774 9.27273C17.4774 9.66098 17.5365 10.0137 17.6549 10.331C17.7757 10.6458 17.9532 10.8968 18.1876 11.0838C18.4243 11.2685 18.7179 11.3608 19.0683 11.3608ZM27.5661 6.54545L25.5491 12H24.6968L22.6798 6.54545H23.5889L25.0945 10.892H25.1514L26.657 6.54545H27.5661ZM30.1114 12.1278C29.7658 12.1278 29.4521 12.0627 29.1704 11.9325C28.8886 11.8 28.6649 11.6094 28.4992 11.3608C28.3335 11.1098 28.2506 10.8068 28.2506 10.4517C28.2506 10.1392 28.3122 9.88589 28.4353 9.69176C28.5584 9.49527 28.7229 9.34138 28.9289 9.23011C29.1349 9.11884 29.3621 9.03598 29.6107 8.98153C29.8617 8.92472 30.1138 8.87973 30.3671 8.84659C30.6985 8.80398 30.9672 8.77202 31.1732 8.75071C31.3815 8.72704 31.5331 8.68797 31.6278 8.63352C31.7248 8.57907 31.7733 8.48437 31.7733 8.34943V8.32102C31.7733 7.97064 31.6775 7.69839 31.4857 7.50426C31.2963 7.31013 31.0087 7.21307 30.6228 7.21307C30.2227 7.21307 29.909 7.30066 29.6817 7.47585C29.4545 7.65104 29.2947 7.83807 29.2023 8.03693L28.4069 7.75284C28.5489 7.4214 28.7383 7.16335 28.9751 6.97869C29.2142 6.79167 29.4746 6.66146 29.7563 6.58807C30.0404 6.51231 30.3198 6.47443 30.5944 6.47443C30.7696 6.47443 30.9708 6.49574 31.1981 6.53835C31.4277 6.5786 31.6491 6.66264 31.8621 6.79048C32.0776 6.91832 32.2563 7.11127 32.3983 7.36932C32.5404 7.62737 32.6114 7.97301 32.6114 8.40625V12H31.7733V11.2614H31.7307C31.6739 11.3797 31.5792 11.5064 31.4466 11.6413C31.3141 11.7763 31.1377 11.8911 30.9175 11.9858C30.6974 12.0805 30.4287 12.1278 30.1114 12.1278ZM30.2393 11.375C30.5707 11.375 30.8501 11.3099 31.0773 11.1797C31.307 11.0495 31.4798 10.8814 31.5958 10.6754C31.7142 10.4695 31.7733 10.2528 31.7733 10.0256V9.25852C31.7378 9.30114 31.6597 9.3402 31.539 9.37571C31.4206 9.40885 31.2833 9.43845 31.127 9.46449C30.9732 9.48816 30.8228 9.50947 30.676 9.52841C30.5316 9.54498 30.4144 9.55919 30.3245 9.57102C30.1067 9.59943 29.9031 9.6456 29.7137 9.70952C29.5267 9.77107 29.3751 9.86458 29.2591 9.99006C29.1455 10.1132 29.0887 10.2812 29.0887 10.4943C29.0887 10.7855 29.1964 11.0057 29.4118 11.1548C29.6296 11.3016 29.9055 11.375 30.2393 11.375ZM34.9791 8.71875V12H34.1411V6.54545H34.9507V7.39773H35.0218C35.1496 7.12074 35.3437 6.8982 35.6041 6.73011C35.8646 6.55966 36.2007 6.47443 36.6127 6.47443C36.982 6.47443 37.3051 6.55019 37.5821 6.7017C37.8591 6.85085 38.0745 7.07812 38.2284 7.38352C38.3823 7.68655 38.4593 8.07008 38.4593 8.53409V12H37.6212V8.59091C37.6212 8.16241 37.5099 7.8286 37.2874 7.58949C37.0648 7.34801 36.7594 7.22727 36.3712 7.22727C36.1037 7.22727 35.8646 7.28527 35.6539 7.40128C35.4455 7.51728 35.281 7.68655 35.1602 7.90909C35.0395 8.13163 34.9791 8.40152 34.9791 8.71875ZM42.2066 12.1136C41.6952 12.1136 41.2549 11.9929 40.8856 11.7514C40.5162 11.5099 40.2322 11.1773 40.0333 10.7536C39.8344 10.3298 39.735 9.84564 39.735 9.30114C39.735 8.74716 39.8368 8.25829 40.0404 7.83452C40.2464 7.40838 40.5328 7.07576 40.8998 6.83665C41.2691 6.59517 41.7 6.47443 42.1924 6.47443C42.5759 6.47443 42.9215 6.54545 43.2293 6.6875C43.5371 6.82955 43.7892 7.02841 43.9857 7.28409C44.1822 7.53977 44.3041 7.83807 44.3515 8.17898H43.5134C43.4495 7.9304 43.3074 7.71023 43.0873 7.51847C42.8695 7.32434 42.5759 7.22727 42.2066 7.22727C41.8799 7.22727 41.5934 7.3125 41.3472 7.48295C41.1034 7.65104 40.9128 7.88897 40.7755 8.19673C40.6405 8.50213 40.5731 8.8608 40.5731 9.27273C40.5731 9.69413 40.6394 10.0611 40.7719 10.3736C40.9069 10.6861 41.0963 10.9287 41.3401 11.1016C41.5863 11.2744 41.8751 11.3608 42.2066 11.3608C42.4244 11.3608 42.6221 11.3229 42.7996 11.2472C42.9772 11.1714 43.1275 11.0625 43.2506 10.9205C43.3737 10.7784 43.4613 10.608 43.5134 10.4091H44.3515C44.3041 10.7311 44.1869 11.0211 43.9999 11.2791C43.8153 11.5348 43.5702 11.7384 43.2648 11.8899C42.9618 12.0391 42.609 12.1136 42.2066 12.1136ZM47.8635 12.1136C47.338 12.1136 46.8846 11.9976 46.5035 11.7656C46.1247 11.5312 45.8323 11.2045 45.6263 10.7855C45.4227 10.3641 45.3209 9.87405 45.3209 9.31534C45.3209 8.75663 45.4227 8.2642 45.6263 7.83807C45.8323 7.40956 46.1188 7.07576 46.4857 6.83665C46.855 6.59517 47.2859 6.47443 47.7783 6.47443C48.0624 6.47443 48.343 6.52178 48.6199 6.61648C48.8969 6.71117 49.1491 6.86506 49.3763 7.07812C49.6036 7.28883 49.7847 7.56818 49.9197 7.91619C50.0546 8.2642 50.1221 8.69271 50.1221 9.2017V9.55682H45.9175V8.83239H49.2698C49.2698 8.52462 49.2082 8.25 49.0851 8.00852C48.9644 7.76705 48.7916 7.57647 48.5667 7.43679C48.3441 7.29711 48.0814 7.22727 47.7783 7.22727C47.4445 7.22727 47.1557 7.31013 46.9118 7.47585C46.6704 7.6392 46.4845 7.85227 46.3543 8.11506C46.2241 8.37784 46.159 8.65956 46.159 8.96023V9.44318C46.159 9.85511 46.23 10.2043 46.3721 10.4908C46.5165 10.7749 46.7165 10.9915 46.9722 11.1406C47.2279 11.2874 47.525 11.3608 47.8635 11.3608C48.0837 11.3608 48.2826 11.33 48.4601 11.2685C48.6401 11.2045 48.7951 11.1098 48.9253 10.9844C49.0555 10.8565 49.1562 10.6979 49.2272 10.5085L50.0368 10.7358C49.9516 11.0104 49.8084 11.2519 49.6072 11.4602C49.4059 11.6662 49.1573 11.8272 48.8614 11.9432C48.5655 12.0568 48.2329 12.1136 47.8635 12.1136Z" fill="white"/>
</svg>
