<svg width="21" height="20" viewBox="0 0 21 20" fill="none" xmlns="http://www.w3.org/2000/svg">
<path d="M8.41634 9.16665C10.0247 9.16665 11.333 10.475 11.333 12.0833C11.333 13.6916 10.0247 15 8.41634 15C6.80801 15 5.49967 13.6916 5.49967 12.0833C5.49967 10.475 6.80801 9.16665 8.41634 9.16665ZM8.41634 7.49998C5.88301 7.49998 3.83301 9.54998 3.83301 12.0833C3.83301 14.6166 5.88301 16.6666 8.41634 16.6666C10.9497 16.6666 12.9997 14.6166 12.9997 12.0833C12.9997 11.1166 12.6997 10.225 12.1913 9.48331L15.4997 6.18331V8.33331H17.1663V3.33331H12.1663V4.99998H14.3163L11.008 8.30831C10.2747 7.79998 9.38301 7.49998 8.41634 7.49998Z" fill="#A4A4A4"/>
</svg>
