<svg width="20" height="21" viewBox="0 0 20 21" fill="none" xmlns="http://www.w3.org/2000/svg">
<path d="M14.5837 8.41665C14.5837 5.88331 12.5337 3.83331 10.0003 3.83331C7.46699 3.83331 5.41699 5.88331 5.41699 8.41665C5.41699 10.6666 7.03366 12.525 9.16699 12.9166V14.6666H7.50033V16.3333H9.16699V18H10.8337V16.3333H12.5003V14.6666H10.8337V12.9166C12.967 12.525 14.5837 10.6666 14.5837 8.41665ZM7.08366 8.41665C7.08366 6.80831 8.39199 5.49998 10.0003 5.49998C11.6087 5.49998 12.917 6.80831 12.917 8.41665C12.917 10.025 11.6087 11.3333 10.0003 11.3333C8.39199 11.3333 7.08366 10.025 7.08366 8.41665Z" fill="#A4A4A4"/>
</svg>
