<svg width="15" height="14" viewBox="0 0 15 14" fill="none" xmlns="http://www.w3.org/2000/svg">
<path d="M12.2547 2.33331H2.45321C1.77936 2.33331 1.23415 2.85831 1.23415 3.49998L1.22803 10.5C1.22803 11.1416 1.77936 11.6666 2.45321 11.6666H12.2547C12.9285 11.6666 13.4799 11.1416 13.4799 10.5V3.49998C13.4799 2.85831 12.9285 2.33331 12.2547 2.33331ZM12.0096 4.81248L7.67862 7.39081C7.48259 7.50748 7.2253 7.50748 7.02927 7.39081L2.69825 4.81248C2.63682 4.77964 2.58303 4.73528 2.54013 4.68208C2.49723 4.62887 2.46611 4.56793 2.44866 4.50295C2.43121 4.43796 2.42779 4.37027 2.4386 4.30399C2.44942 4.23771 2.47424 4.1742 2.51158 4.11732C2.54891 4.06044 2.59798 4.01136 2.65581 3.97306C2.71364 3.93476 2.77903 3.90803 2.84802 3.89449C2.91702 3.88095 2.98818 3.88088 3.0572 3.89428C3.12622 3.90769 3.19167 3.93429 3.24958 3.97248L7.35394 6.41665L11.4583 3.97248C11.5162 3.93429 11.5817 3.90769 11.6507 3.89428C11.7197 3.88088 11.7909 3.88095 11.8599 3.89449C11.9289 3.90803 11.9942 3.93476 12.0521 3.97306C12.1099 4.01136 12.159 4.06044 12.1963 4.11732C12.2336 4.1742 12.2585 4.23771 12.2693 4.30399C12.2801 4.37027 12.2767 4.43796 12.2592 4.50295C12.2418 4.56793 12.2107 4.62887 12.1678 4.68208C12.1249 4.73528 12.0711 4.77964 12.0096 4.81248Z" fill="#545454"/>
</svg>
