<svg width="24" height="24" viewBox="0 0 24 24" fill="none" xmlns="http://www.w3.org/2000/svg">
<path d="M17.5624 6.51196C18.6819 6.71377 19.6001 7.31875 20.3178 8.3269C20.9493 9.22011 21.38 10.3436 21.6093 11.6975C21.8106 12.9364 21.7955 14.1749 21.5662 15.4138C21.2218 17.4591 20.5329 19.1733 19.4996 20.5562C18.265 22.2272 16.7153 23.0625 14.8496 23.0625C14.3901 23.0625 13.8883 22.9186 13.3426 22.6304C12.9693 22.4 12.5533 22.2847 12.0938 22.2847C11.6342 22.2847 11.2187 22.4 10.8449 22.6304C10.2992 22.9186 9.79741 23.0625 9.33788 23.0625C7.47218 23.0625 5.92246 22.2272 4.68786 20.5562C3.65457 19.1733 2.96571 17.4591 2.62128 15.4138C2.39195 14.1749 2.37686 12.9364 2.57818 11.6975C2.80751 10.3436 3.23815 9.22011 3.86968 8.3269C4.58742 7.31875 5.50561 6.71377 6.62512 6.51196C7.31398 6.39658 8.26105 6.4977 9.46677 6.81445C10.5001 7.10268 11.3756 7.44839 12.0933 7.85156C12.8111 7.44839 13.6866 7.10268 14.7199 6.81445C15.926 6.4977 16.8735 6.39658 17.5624 6.51196ZM15.194 4.74023C14.7923 5.11489 14.2608 5.38843 13.6008 5.56128C13.1413 5.70518 12.6395 5.77734 12.0938 5.77734L11.448 5.73413C11.3907 5.33095 11.3907 4.86987 11.448 4.35132C11.5631 3.31421 11.8929 2.52212 12.4382 1.97461C12.8399 1.59995 13.3715 1.32642 14.0314 1.15356C14.491 1.00967 14.9927 0.9375 15.5385 0.9375L16.1842 0.980713L16.2273 1.62891C16.2273 2.17641 16.1553 2.68028 16.0122 3.14136C15.8402 3.80381 15.5678 4.33706 15.194 4.74023Z" fill="#C5C5C5"/>
</svg>
