<svg width="24" height="24" viewBox="0 0 24 24" fill="none" xmlns="http://www.w3.org/2000/svg">
<path d="M12.6139 2.20947C12.4384 2.07292 12.2223 1.99878 11.9999 1.99878C11.7775 1.99878 11.5615 2.07292 11.3859 2.20947L3.15799 8.60942C2.79715 8.89012 2.50524 9.24957 2.30455 9.66032C2.10385 10.0711 1.99968 10.5222 2 10.9794V19.9993C2 20.5298 2.21071 21.0385 2.58578 21.4135C2.96085 21.7886 3.46956 21.9993 3.99999 21.9993H7.99996C8.53039 21.9993 9.03909 21.7886 9.41416 21.4135C9.78923 21.0385 9.99994 20.5298 9.99994 19.9993V13.9994H13.9999V19.9993C13.9999 20.5298 14.2106 21.0385 14.5857 21.4135C14.9608 21.7886 15.4695 21.9993 15.9999 21.9993H19.9999C20.5303 21.9993 21.039 21.7886 21.4141 21.4135C21.7891 21.0385 21.9999 20.5298 21.9999 19.9993V10.9794C21.9999 10.5221 21.8955 10.0708 21.6944 9.66003C21.4934 9.24927 21.2011 8.88991 20.8399 8.60942L12.6139 2.20947Z" fill="#C5C5C5"/>
</svg>
