<svg width="24" height="24" viewBox="0 0 24 24" fill="none" xmlns="http://www.w3.org/2000/svg">
<path d="M17.6351 8.7735C17.6938 8.6966 17.7385 8.61 17.7672 8.51763C18.0406 7.65203 18.1062 6.7342 17.9586 5.83853C17.8111 4.94286 17.4546 4.09455 16.918 3.36238C16.3814 2.63021 15.6799 2.03477 14.8702 1.62433C14.0606 1.21389 13.1656 1 12.2578 1C11.3501 1 10.4551 1.21389 9.64549 1.62433C8.83583 2.03477 8.13429 2.63021 7.59771 3.36238C7.06113 4.09455 6.70462 4.94286 6.55707 5.83853C6.40953 6.7342 6.47511 7.65203 6.74849 8.51763C6.78057 8.60767 6.82805 8.69145 6.8888 8.76524C5.60667 9.8619 4.6914 11.3251 4.2663 12.9579C3.84119 14.5906 3.92666 16.3144 4.51119 17.8971C5.09572 19.4798 6.15124 20.8453 7.53557 21.8097C8.91991 22.7742 10.5666 23.2913 12.2537 23.2913C13.9409 23.2913 15.5875 22.7742 16.9719 21.8097C18.3562 20.8453 19.4117 19.4798 19.9963 17.8971C20.5808 16.3144 20.6663 14.5906 20.2411 12.9579C19.816 11.3251 18.9008 9.8619 17.6186 8.76524L17.6351 8.7735ZM8.27543 7.79956C8.1118 7.18817 8.09098 6.54733 8.21459 5.92661C8.33819 5.30589 8.60291 4.72191 8.98828 4.21985C9.37364 3.71778 9.86932 3.31108 10.437 3.03119C11.0046 2.7513 11.6291 2.60573 12.262 2.60573C12.8949 2.60573 13.5193 2.7513 14.087 3.03119C14.6546 3.31108 15.1503 3.71778 15.5357 4.21985C15.921 4.72191 16.1858 5.30589 16.3094 5.92661C16.433 6.54733 16.4122 7.18817 16.2485 7.79956C15.0277 7.12614 13.6562 6.77296 12.262 6.77296C10.8677 6.77296 9.49624 7.12614 8.27543 7.79956Z" fill="#C5C5C5"/>
</svg>
