<svg width="24" height="24" viewBox="0 0 24 24" fill="none" xmlns="http://www.w3.org/2000/svg">
<path d="M7.5 6.75C7.5 5.85999 7.76392 4.98996 8.25839 4.24994C8.75285 3.50991 9.45566 2.93314 10.2779 2.59254C11.1002 2.25195 12.005 2.16283 12.8779 2.33647C13.7508 2.5101 14.5526 2.93869 15.182 3.56802C15.8113 4.19736 16.2399 4.99918 16.4135 5.8721C16.5872 6.74501 16.4981 7.64981 16.1575 8.47208C15.8169 9.29434 15.2401 9.99715 14.5001 10.4916C13.76 10.9861 12.89 11.25 12 11.25C10.8065 11.25 9.66193 10.7759 8.81802 9.93198C7.97411 9.08807 7.5 7.94348 7.5 6.75ZM19.5 21.75H4.5C3.90326 21.75 3.33097 21.5129 2.90901 21.091C2.48705 20.669 2.25 20.0967 2.25 19.5C2.25 17.7098 2.96116 15.9929 4.22703 14.727C5.4929 13.4612 7.20979 12.75 9 12.75H15C16.7902 12.75 18.5071 13.4612 19.773 14.727C21.0388 15.9929 21.75 17.7098 21.75 19.5C21.75 20.0967 21.5129 20.669 21.091 21.091C20.669 21.5129 20.0967 21.75 19.5 21.75Z" fill="#C5C5C5"/>
</svg>
