<svg width="24" height="24" viewBox="0 0 24 24" fill="none" xmlns="http://www.w3.org/2000/svg">
<path d="M22.4849 17.6249C21.5884 18.6664 20.5509 19.5777 19.4024 20.3324C17.4065 21.7297 15.1488 22.7093 12.7649 23.2124C11.7663 23.3815 10.7441 23.3509 9.75742 23.1224C8.84242 22.9049 7.76242 23.4749 6.81742 23.5649C5.79564 23.7356 4.74677 23.6294 3.77992 23.2574C2.99768 22.7991 2.35075 22.1418 1.90492 21.3524C1.44658 20.5895 1.18533 19.7246 1.14474 18.8356C1.10415 17.9465 1.2855 17.0614 1.67242 16.2599C2.32596 15.0526 3.41369 14.1385 4.71556 13.7027C6.01742 13.2669 7.43622 13.3419 8.68492 13.9124C8.90556 14.0059 9.11869 14.1162 9.32242 14.2424L9.38993 14.1749C10.0641 13.5136 10.9257 13.0763 11.8574 12.9224C12.7559 12.7828 13.6755 12.9161 14.4974 13.3049V8.7224C14.5804 8.40854 14.5924 8.08015 14.5328 7.76104C14.4731 7.44193 14.3432 7.14009 14.1524 6.8774C13.9936 6.66929 13.7952 6.49459 13.5687 6.36331C13.3422 6.23203 13.092 6.14677 12.8324 6.1124C12.4349 6.0899 12.4124 6.2849 11.8949 6.2849C11.2424 6.2849 11.0249 6.0299 10.4999 6.0749C9.89242 6.1274 9.80993 6.4949 9.35242 6.5624C8.54992 6.6824 7.56742 5.6924 7.26742 4.8599C6.74992 3.4124 7.82992 1.8674 8.85742 0.952402C9.81742 0.0974024 10.2899 0.329902 11.4524 0.764902C12.4208 1.12725 13.3587 1.56613 14.2574 2.0774C15.0347 2.52369 15.7791 3.02497 16.4849 3.5774C18.0061 5.21589 19.3024 7.04948 20.3399 9.0299C21.4128 11.0771 22.1978 13.2628 22.6724 15.5249C22.8524 16.3499 23.0624 16.8749 22.4849 17.6249Z" fill="#C5C5C5"/>
<path d="M9.22499 14.5201C8.83465 15.4766 8.70525 16.5197 8.84999 17.5426C8.86403 17.6409 8.83888 17.7408 8.77996 17.8208C8.72104 17.9008 8.63306 17.9544 8.53499 17.9701H8.48249C8.39171 17.9702 8.30391 17.9377 8.23508 17.8785C8.16625 17.8193 8.12097 17.7374 8.10749 17.6476C7.94266 16.4923 8.09028 15.314 8.53499 14.2351C8.57732 14.1242 8.62745 14.0164 8.68499 13.9126C8.90563 14.0061 9.11875 14.1164 9.32249 14.2426L9.38999 14.1751C9.32749 14.2864 9.27237 14.4016 9.22499 14.5201ZM12.3435 21.6466C11.5668 21.6428 10.7998 21.4738 10.0935 21.1508C10.0445 21.133 9.99974 21.1051 9.96213 21.0689C9.92451 21.0328 9.89485 20.9892 9.87504 20.9409C9.85523 20.8927 9.84571 20.8408 9.84708 20.7887C9.84845 20.7365 9.86068 20.6853 9.883 20.6381C9.90532 20.591 9.93723 20.549 9.97669 20.5149C10.0161 20.4807 10.0623 20.4552 10.1122 20.44C10.1621 20.4247 10.2146 20.42 10.2664 20.4262C10.3182 20.4324 10.3681 20.4493 10.413 20.4758C10.9744 20.7395 11.5849 20.8825 12.205 20.8954C12.8252 20.9083 13.4411 20.7909 14.013 20.5508C14.8634 20.1628 15.5642 19.5082 16.0095 18.6863C16.0571 18.599 16.1375 18.5342 16.2329 18.5061C16.3284 18.4781 16.431 18.4891 16.5184 18.5367C16.6057 18.5844 16.6705 18.6647 16.6986 18.7602C16.7266 18.8556 16.7156 18.9583 16.668 19.0456C16.1436 20.012 15.3188 20.7813 14.3182 21.2371C13.6963 21.5115 13.0233 21.6511 12.3435 21.6466Z" fill="#C5C5C5"/>
</svg>
