<svg width="38" height="38" viewBox="0 0 38 38" fill="none" xmlns="http://www.w3.org/2000/svg">
<rect width="38" height="38" rx="15" fill="#FFF5D6"/>
<path d="M19 27.3332C22.4312 27.3332 25.25 24.614 25.25 21.124C25.25 20.2673 25.2063 19.349 24.7313 17.9215C24.2563 16.494 24.1608 16.3098 23.6587 15.4282C23.4442 17.2269 22.2962 17.9769 22.0046 18.2011C22.0046 17.9678 21.3104 15.3898 20.2575 13.8469C19.2237 12.3332 17.8179 11.3403 16.9937 10.6665C16.9937 11.9457 16.6342 13.8473 16.1187 14.8165C15.6037 15.7853 15.5071 15.8207 14.8633 16.5415C14.22 17.2623 13.9246 17.4853 13.3863 18.3603C12.8483 19.2353 12.75 20.4007 12.75 21.2573C12.75 24.7473 15.5688 27.3332 19 27.3332Z" stroke="#FFCD30" stroke-width="1.3" stroke-linejoin="round"/>
</svg>
