<svg width="38" height="38" viewBox="0 0 38 38" fill="none" xmlns="http://www.w3.org/2000/svg">
<rect width="38" height="38" rx="15" fill="#D1F1DF"/>
<path d="M14.8334 25.3832V26.4998C14.8334 26.7208 14.9212 26.9328 15.0774 27.0891C15.2337 27.2454 15.4457 27.3332 15.6667 27.3332H22.3334C22.5544 27.3332 22.7663 27.2454 22.9226 27.0891C23.0789 26.9328 23.1667 26.7208 23.1667 26.4998V25.3832C24.4335 24.6518 25.4854 23.5998 26.2168 22.333C26.9482 21.0663 27.3333 19.6293 27.3334 18.1665C27.3334 17.9455 27.2456 17.7335 27.0893 17.5772C26.933 17.421 26.721 17.3332 26.5 17.3332C26.4848 16.8229 26.3388 16.3252 26.0762 15.8874C25.8136 15.4497 25.443 15.0867 25 14.8332C24.8938 14.1073 24.5295 13.444 23.9739 12.9649C23.4183 12.4859 22.7086 12.2231 21.975 12.2248C21.6937 12.2243 21.4135 12.2608 21.1417 12.3332C20.5681 11.7855 19.8056 11.48 19.0125 11.48C18.2195 11.48 17.4569 11.7855 16.8834 12.3332C16.6115 12.2608 16.3313 12.2243 16.05 12.2248C15.3135 12.2191 14.5999 12.48 14.0408 12.9594C13.4817 13.4389 13.115 14.1044 13.0084 14.8332C12.5638 15.0857 12.1916 15.4482 11.9274 15.886C11.6633 16.3238 11.5161 16.8221 11.5 17.3332C11.279 17.3332 11.067 17.421 10.9108 17.5772C10.7545 17.7335 10.6667 17.9455 10.6667 18.1665C10.6667 19.6293 11.0518 21.0663 11.7832 22.333C12.5146 23.5998 13.5666 24.6518 14.8334 25.3832ZM14.0917 16.2165L14.7834 15.9998L14.65 15.2498C14.6522 15.0703 14.6897 14.8931 14.7604 14.7281C14.8311 14.5631 14.9336 14.4137 15.0621 14.2883C15.1905 14.1629 15.3424 14.0641 15.5091 13.9975C15.6757 13.9308 15.8539 13.8976 16.0334 13.8998C16.274 13.8984 16.5114 13.9556 16.725 14.0665L17.4 14.4415L17.8167 13.7998C17.947 13.6056 18.1231 13.4464 18.3295 13.3364C18.5358 13.2263 18.7661 13.1688 19 13.1688C19.2339 13.1688 19.4642 13.2263 19.6706 13.3364C19.8769 13.4464 20.053 13.6056 20.1834 13.7998L20.6 14.4415L21.275 14.0665C21.4886 13.9556 21.726 13.8984 21.9667 13.8998C22.3271 13.8953 22.6749 14.0325 22.9352 14.2819C23.1955 14.5312 23.3475 14.8729 23.3584 15.2332L23.225 15.9415L23.9084 16.1748C24.1604 16.2537 24.3832 16.4061 24.548 16.6125C24.7128 16.8189 24.8122 17.0699 24.8334 17.3332H13.1667C13.1879 17.0699 13.2872 16.8189 13.452 16.6125C13.6169 16.4061 13.8396 16.2537 14.0917 16.1748V16.2165ZM25.6167 18.9998C25.4777 20.0908 25.0709 21.1305 24.4326 22.0262C23.7942 22.9218 22.9443 23.6457 21.9584 24.1332C21.8197 24.203 21.7033 24.3103 21.6223 24.4428C21.5413 24.5753 21.4989 24.7279 21.5 24.8832V25.6665H16.5V24.8832C16.5011 24.7279 16.4588 24.5753 16.3778 24.4428C16.2968 24.3103 16.1804 24.203 16.0417 24.1332C15.0558 23.6457 14.2058 22.9218 13.5675 22.0262C12.9292 21.1305 12.5224 20.0908 12.3834 18.9998H25.6167Z" fill="#19B961"/>
</svg>
