<svg width="38" height="38" viewBox="0 0 38 38" fill="none" xmlns="http://www.w3.org/2000/svg">
<rect width="38" height="38" rx="15" fill="#FBD9D9"/>
<path d="M22.75 16.9165C21.9167 14.8332 22.75 10.6665 19 10.6665C15.25 10.6665 16.0834 14.8332 15.25 16.4998C14.4167 18.1665 13.1667 19.4165 13.1667 21.9165C13.1667 25.6665 16.2917 27.3332 19 27.3332C21.7084 27.3332 24.8334 25.6665 24.8334 21.9165C24.8334 19.8332 23.5834 18.9998 22.75 16.9165Z" stroke="#ED4343" stroke-width="1.3"/>
<path d="M21.5 21.5C21.5 22.163 21.2366 22.7989 20.7678 23.2678C20.2989 23.7366 19.663 24 19 24C18.337 24 17.7011 23.7366 17.2322 23.2678C16.7634 22.7989 16.5 22.163 16.5 21.5C16.5 20.1192 17.6192 18.375 19 18.375C20.3808 18.375 21.5 20.1192 21.5 21.5Z" stroke="#ED4343" stroke-width="1.3"/>
</svg>
