<svg width="38" height="38" viewBox="0 0 38 38" fill="none" xmlns="http://www.w3.org/2000/svg">
<rect width="38" height="38" rx="15" fill="#D4DDFA"/>
<path d="M24 14C24.3452 14 24.625 13.7202 24.625 13.375C24.625 13.0298 24.3452 12.75 24 12.75C23.6548 12.75 23.375 13.0298 23.375 13.375C23.375 13.7202 23.6548 14 24 14Z" fill="#2956E8"/>
<path d="M25.25 10.25C22.5987 10.253 20.0569 11.3075 18.1822 13.1822C16.3075 15.0569 15.253 17.5987 15.25 20.25V21.5H10.875C10.7514 21.5 10.6306 21.5367 10.5278 21.6054C10.4251 21.6741 10.345 21.7717 10.2977 21.8858C10.2504 22 10.238 22.1257 10.2621 22.2469C10.2862 22.3681 10.3457 22.4795 10.4331 22.5669L15.4331 27.5669C15.5205 27.6543 15.6319 27.7138 15.7531 27.7379C15.8743 27.762 16 27.7496 16.1141 27.7023C16.2283 27.655 16.3259 27.5749 16.3946 27.4722C16.4633 27.3694 16.5 27.2486 16.5 27.125V22.75H17.75C20.4012 22.747 22.943 21.6925 24.8178 19.8178C26.6925 17.9431 27.747 15.4013 27.75 12.75V10.25H25.25ZM15.25 25.6163L12.3837 22.75H15.25V25.6163ZM16.5 21.5V20.25C16.5001 17.9935 17.3758 15.8251 18.9425 14.2012L23.7987 19.0575C22.1749 20.6242 20.0065 21.4998 17.75 21.5H16.5ZM26.5 12.75C26.4999 14.7009 25.8439 16.595 24.6375 18.1281L19.8719 13.3625C21.405 12.1561 23.2991 11.5001 25.25 11.5H26.5V12.75Z" fill="#2956E8"/>
</svg>
